<svg width="48" height="48" viewBox="0 0 48 48" fill="#f7efd8" xmlns="http://www.w3.org/2000/svg">
<path d="M15.8845 40.0004C15.8845 44.4201 19.5188 48.0004 23.9998 48.0004C27.9091 48.0004 31.1705 45.2764 31.9435 41.6502C32.714 45.2764 35.9778 48.0004 39.8846 48.0004C44.368 48.0004 48 44.4201 48 40.0004C48 35.5806 44.368 32.0003 39.8846 32.0003C35.9754 32.0003 32.714 34.7243 31.9435 38.3505C31.1729 34.7243 27.9091 32.0003 23.9998 32.0003C19.5188 32.0003 15.8845 35.5831 15.8845 40.0004Z" fill="#FBCEBD"/>
<path d="M16.0565 22.3503C15.2859 18.7241 12.0221 16.0002 8.11533 16.0002C3.63187 16.0002 -5.42881e-07 19.5805 -3.49689e-07 24.0002C-1.56497e-07 28.4199 3.63187 32.0001 8.11533 32.0001C12.0245 32.0001 15.2859 29.2762 16.0565 25.65C16.827 29.2762 20.0908 32.0001 23.9976 32.0001C28.481 32.0001 32.113 28.4175 32.113 24.0002C32.113 19.5829 28.4786 16.0002 23.9976 16.0002C20.0908 16.0002 16.827 18.7241 16.0565 22.3503Z" fill="#FBCEBD"/>
<path d="M31.941 6.35014C31.1705 2.7239 27.9066 -1.98471e-05 23.9974 -1.96762e-05C19.5164 -1.94803e-05 15.8821 3.58028 15.8821 7.99999C15.8821 12.4197 19.5164 16 23.9974 16C27.9066 16 31.168 13.2761 31.941 9.64984C32.7116 13.2761 35.9754 16 39.8822 16C44.3656 16 47.9975 12.4173 47.9975 7.99999C47.9975 3.5827 44.3656 -2.05665e-05 39.8822 -2.03706e-05C35.973 -2.01997e-05 32.7116 2.7239 31.941 6.35014Z" fill="#FBCEBD"/>
</svg>
