<svg width="49" height="49" viewBox="0 0 49 49" fill="none" xmlns="http://www.w3.org/2000/svg">
<path d="M8.09546 15.9506C3.67575 15.9506 0.095459 19.5849 0.095459 24.0659C0.095459 27.9751 2.81937 31.2365 6.44562 32.0095C2.81937 32.7801 0.095459 36.0438 0.095459 39.9506C0.095459 44.4341 3.67575 48.066 8.09546 48.066C12.5152 48.066 16.0955 44.4341 16.0955 39.9506C16.0955 36.0414 13.3716 32.7801 9.74531 32.0095C13.3716 31.2389 16.0955 27.9751 16.0955 24.0659C16.0955 19.5849 12.5128 15.9506 8.09546 15.9506Z" fill="#FBCEBD"/>
<path d="M25.7453 16.1229C29.3715 15.3523 32.0954 12.0885 32.0954 8.18173C32.0954 3.69828 28.5151 0.0664062 24.0954 0.0664062C19.6757 0.0664062 16.0955 3.69828 16.0955 8.18173C16.0955 12.0909 18.8194 15.3523 22.4456 16.1229C18.8194 16.8934 16.0955 20.1572 16.0955 24.064C16.0955 28.5474 19.6781 32.1794 24.0954 32.1794C28.5127 32.1794 32.0954 28.545 32.0954 24.064C32.0954 20.1572 29.3715 16.8934 25.7453 16.1229Z" fill="#FBCEBD"/>
<path d="M41.7453 32.0078C45.3716 31.2372 48.0955 27.9734 48.0955 24.0642C48.0955 19.5832 44.5152 15.9489 40.0955 15.9489C35.6758 15.9489 32.0955 19.5832 32.0955 24.0642C32.0955 27.9734 34.8194 31.2348 38.4456 32.0078C34.8194 32.7783 32.0955 36.0422 32.0955 39.949C32.0955 44.4324 35.6782 48.0643 40.0955 48.0643C44.5128 48.0643 48.0955 44.4324 48.0955 39.949C48.0955 36.0397 45.3716 32.7783 41.7453 32.0078Z" fill="#FBCEBD"/>
</svg>
