<svg width="48" height="48" viewBox="0 0 48 48" fill="none" xmlns="http://www.w3.org/2000/svg">
<path d="M40 32.1158C44.4197 32.1158 48 28.4815 48 24.0005C48 20.0913 45.2761 16.8299 41.6498 16.0569C45.2761 15.2863 48 12.0226 48 8.11579C48 3.63234 44.4197 0.00040726 40 0.000406873C35.5803 0.000406487 32 3.63234 32 8.11579C32 12.025 34.7239 15.2863 38.3501 16.0569C34.7239 16.8275 32 20.0913 32 24.0005C32 28.4815 35.5827 32.1158 40 32.1158Z" fill="#FBCEBD"/>
<path d="M22.3502 31.9435C18.724 32.7141 16 35.9779 16 39.8847C16 44.3681 19.5803 48 24 48C28.4198 48 32 44.3681 32 39.8847C32 35.9755 29.2761 32.7141 25.6498 31.9435C29.2761 31.173 32 27.9092 32 24.0024C32 19.519 28.4173 15.887 24.0001 15.887C19.5828 15.887 16 19.5214 16 24.0024C16 27.9092 18.724 31.173 22.3502 31.9435Z" fill="#FBCEBD"/>
<path d="M6.35014 16.0592C2.7239 16.8298 -1.82703e-05 20.0936 -1.8612e-05 24.0028C-1.90037e-05 28.4838 3.58028 32.1182 7.99999 32.1182C12.4197 32.1182 16 28.4838 16 24.0028C16 20.0936 13.2761 16.8322 9.64984 16.0592C13.2761 15.2887 16 12.0248 16 8.11805C16 3.6346 12.4173 0.0027266 7.99999 0.00272621C3.5827 0.00272582 -1.68314e-05 3.6346 -1.72233e-05 8.11805C-1.75651e-05 12.0273 2.7239 15.2887 6.35014 16.0592Z" fill="#FBCEBD"/>
</svg>
